<svg width="24.000000" height="24.000000" viewBox="0 0 24 24" fill="none" xmlns="http://www.w3.org/2000/svg" xmlns:xlink="http://www.w3.org/1999/xlink">
	<desc>
			Created with Pixso.
	</desc>
	<defs>
		<clipPath id="clip8_848">
			<rect rx="0.000000" width="23.000000" height="23.000000" transform="translate(0.500000 0.500000)" fill="white" fill-opacity="0"/>
		</clipPath>
	</defs>
	<g clip-path="url(#clip8_848)">
		<path d="M18.29 14.82L17.47 14.34L19.67 13.75L19.31 12.4L15.75 13.35L14.07 12.38C14.09 12.26 14.1 12.13 14.1 12C14.1 11.86 14.09 11.73 14.07 11.61L15.75 10.64L19.31 11.59L19.67 10.24L17.47 9.65L18.29 9.17L21.81 8.96L22.33 6.03L19.53 5.01L17.59 7.96L16.76 8.43L17.35 6.23L16 5.86L15.04 9.42L13.36 10.39C13.17 10.23 12.94 10.09 12.7 10.01L12.7 8.07L15.3 5.46L14.31 4.47L12.7 6.08L12.7 5.13L14.27 1.98L12 0L9.72 1.98L11.29 5.13L11.29 6.08L9.68 4.47L8.69 5.46L11.29 8.07L11.29 10.01C11.05 10.09 10.82 10.23 10.63 10.39L8.95 9.42L7.99 5.86L6.64 6.23L7.23 8.43L6.4 7.96L4.46 5.01L1.66 6.03L2.18 8.96L5.7 9.17L6.52 9.65L4.32 10.24L4.68 11.59L8.24 10.64L9.92 11.61C9.9 11.74 9.89 11.86 9.89 12C9.89 12.13 9.9 12.26 9.92 12.38L8.24 13.35L4.68 12.4L4.32 13.75L6.52 14.34L5.7 14.82L2.18 15.03L1.66 17.96L4.46 18.98L6.4 16.03L7.23 15.56L6.64 17.76L7.99 18.13L8.95 14.57L10.63 13.6C10.82 13.76 11.05 13.9 11.29 13.98L11.29 15.92L8.69 18.53L9.68 19.52L11.29 17.91L11.29 18.86L9.72 22.01L12 24L14.27 22.01L12.7 18.86L12.7 17.91L14.31 19.52L15.3 18.53L12.7 15.92L12.7 13.98C12.94 13.9 13.17 13.76 13.36 13.6L15.04 14.57L16 18.13L17.35 17.76L16.77 15.56L17.59 16.03L19.53 18.98L22.33 17.96L21.81 15.03L18.29 14.82Z" fill="#FF4646" fill-opacity="1.000000" fill-rule="nonzero"/>
	</g>
</svg>
